<?xml version="1.0" encoding="UTF-8"?>
<svg version="1.1" viewBox="0 0 1504 1500" width="376" height="375" xmlns="http://www.w3.org/2000/svg">
<path transform="translate(0)" d="m0 0h1504v1500h-1504z" fill="#FFFFFD"/>
<path transform="translate(1039,598)" d="m0 0h211l26 3 17 4 19 7 17 9 13 10 9 9 10 14 7 16 4 13 2 12 1 11v14l-3 20-6 18-7 14-9 12-9 10-11 9-13 8-20 8-6 2 5 9 13 20 16 25 15 23 16 25 11 17 16 25 9 14v3h-87l-5-5-15-24-12-20-13-21-17-28-16-26-12-19v-2l-96-1-1 146h-79z" fill="#2D4054"/>
<path transform="translate(533,500)" d="m0 0h97l3 3 30 52 14 24 9 15 15 26 16 28 13 22 10 17 4 6v2l5-1 10-17 14-24 10-17 13-22 9-15 17-29 14-24 9-15 10-17 8-13 2-1h103l-1 5-14 22-16 26-12 20-14 23-11 18-16 26-14 23-16 26-12 20-15 24-17 28-10 17-1 3-1 186-1 12-2 1h-97l-1-1-1-198-6-12-8-13-12-19-9-15-17-28-16-26-28-46-32-52-31-51-11-17v-1z" fill="#18BC9E"/>
<path transform="translate(292,588)" d="m0 0h33l26 2 23 4 20 6 16 7 15 10 13 13 9 14 8 17 6 20-1 3-31 5-38 5h-8l-6-15-7-11-7-7-13-8-16-5-13-2h-34l-18 3-13 5-8 5-7 6-6 12-2 10 1 13 4 11 6 8 11 8 13 6 23 7 66 15 29 8 22 8 19 10 11 8 10 9 8 11 8 16 4 11 3 16v31l-4 19-4 12-8 14-10 13-11 10-14 9-16 8-24 8-26 5-17 2-16 1h-28l-25-2-26-4-22-6-19-8-15-9-14-11-8-8-11-15-9-17-8-23 1-3 72-12h5l3 8 8 17 11 12 9 7 11 5 13 4 17 3 10 1h26l19-2 19-5 16-8 7-6 6-10 3-10v-19l-4-10-6-9-10-8-16-8-15-5-32-8-40-9-30-8-22-8-19-10-11-8-10-9-9-12-7-14-5-17-2-14v-18l3-19 4-13 8-16 8-10 10-10 13-9 16-8 16-6 21-5 22-3z" fill="#2D4054"/>
<path transform="translate(1119,660)" d="m0 0h117l19 3 13 5 10 7 8 9 5 11 3 14v12l-3 15-4 9-6 9-10 9-13 6-17 4-16 1h-106l-1-8v-100z" fill="#FFFFFD"/>
</svg>
